<svg width="71" height="48" viewBox="0 0 71 48" fill="none" xmlns="http://www.w3.org/2000/svg">
<rect x="0.85144" y="0.5" width="69" height="47" rx="5.5" fill="white" stroke="#D9D9D9"/>
<path fill-rule="evenodd" clip-rule="evenodd" d="M17.0439 17.8659C17.9839 17.9452 18.924 17.3901 19.5116 16.6863C20.0893 15.9627 20.4712 14.9913 20.3733 14C19.541 14.0397 18.5127 14.5551 17.9252 15.2787C17.3866 15.9032 16.9264 16.9143 17.0439 17.8659ZM28.2269 30.6333V15.1796H33.9556C36.9129 15.1796 38.9791 17.2414 38.9791 20.2548C38.9791 23.2683 36.8737 25.3499 33.8772 25.3499H30.5967V30.6333H28.2269ZM20.3634 18.0542C19.5352 18.006 18.7796 18.3064 18.1692 18.549C17.7764 18.7051 17.4437 18.8373 17.1907 18.8373C16.9067 18.8373 16.5603 18.6981 16.1715 18.5417L16.1714 18.5417L16.1714 18.5417L16.1714 18.5417C15.6619 18.3368 15.0793 18.1025 14.4683 18.1137C13.068 18.1335 11.7656 18.9365 11.0508 20.2152C9.58188 22.7726 10.6688 26.5593 12.0888 28.6409C12.784 29.6718 13.6164 30.8018 14.7132 30.7622C15.1957 30.7438 15.5428 30.5947 15.902 30.4404C16.3155 30.2628 16.7451 30.0782 17.4159 30.0782C18.0634 30.0782 18.4742 30.2579 18.8686 30.4305C19.2436 30.5945 19.6037 30.752 20.1382 30.7424C21.2741 30.7225 21.989 29.7115 22.6843 28.6806C23.4346 27.5741 23.7643 26.4943 23.8143 26.3304L23.8202 26.3114C23.819 26.3102 23.8097 26.3059 23.7934 26.2984C23.5426 26.1821 21.6255 25.2937 21.6071 22.9114C21.5886 20.9118 23.1277 19.8987 23.3699 19.7392C23.3847 19.7295 23.3946 19.723 23.3991 19.7196C22.4199 18.2525 20.8922 18.0939 20.3634 18.0542ZM43.3075 30.7523C44.796 30.7523 46.1767 29.989 46.8034 28.7797H46.8524V30.6333H49.0459V22.9412C49.0459 20.7108 47.2833 19.2735 44.5707 19.2735C42.0541 19.2735 40.1935 20.7307 40.1249 22.733H42.2597C42.436 21.7814 43.3075 21.1569 44.5022 21.1569C45.9515 21.1569 46.7643 21.8409 46.7643 23.0998V23.9522L43.8069 24.1307C41.0552 24.2992 39.5668 25.4391 39.5668 27.4217C39.5668 29.424 41.1042 30.7523 43.3075 30.7523ZM43.9439 28.9185C42.6806 28.9185 41.8776 28.3039 41.8776 27.3622C41.8776 26.3908 42.6513 25.8257 44.1299 25.7365L46.7641 25.568V26.4403C46.7641 27.8876 45.5498 28.9185 43.9439 28.9185ZM56.3217 31.238C55.3718 33.9442 54.2848 34.8363 51.9738 34.8363C51.7975 34.8363 51.21 34.8165 51.0729 34.7768V32.9232C51.2198 32.943 51.5821 32.9628 51.7682 32.9628C52.816 32.9628 53.4035 32.5167 53.7658 31.357L53.9813 30.673L49.9663 19.4222H52.4438L55.2347 28.5517H55.2837L58.0745 19.4222H60.4835L56.3217 31.238ZM30.5965 17.2018H33.3286C35.385 17.2018 36.5601 18.312 36.5601 20.2648C36.5601 22.2175 35.385 23.3377 33.3188 23.3377H30.5965V17.2018Z" fill="black"/>
</svg>
