<svg width="71" height="48" viewBox="0 0 71 48" fill="none" xmlns="http://www.w3.org/2000/svg">
<rect x="0.85144" y="0.5" width="69" height="47" rx="5.5" fill="white" stroke="#D9D9D9"/>
<path fill-rule="evenodd" clip-rule="evenodd" d="M33.4117 31.5159V25.474H36.5301C37.8079 25.474 38.8864 25.0459 39.7656 24.2014L39.9767 23.9873C41.5827 22.239 41.4772 19.5154 39.7656 17.8979C38.9099 17.0415 37.7375 16.5777 36.5301 16.6015H31.5243V31.5159H33.4117ZM33.4119 23.6424V18.433H36.5777C37.2577 18.433 37.9026 18.6947 38.3833 19.1704C39.4034 20.1695 39.4268 21.8346 38.442 22.8693C37.9612 23.3807 37.2812 23.6662 36.5777 23.6424H33.4119ZM48.7808 22.1082C47.9719 21.3589 46.8699 20.9783 45.4748 20.9783C43.6812 20.9783 42.333 21.6443 41.4421 22.9645L43.1068 24.023C43.7164 23.1191 44.5487 22.6672 45.6038 22.6672C46.272 22.6672 46.9168 22.9169 47.4209 23.3689C47.9132 23.7971 48.1946 24.4155 48.1946 25.0697V25.5097C47.4678 25.1053 46.5534 24.8913 45.4279 24.8913C44.115 24.8913 43.0599 25.2005 42.2744 25.8308C41.489 26.4612 41.0904 27.2937 41.0904 28.3523C41.067 29.3156 41.4773 30.2314 42.2041 30.8499C42.9426 31.5159 43.8805 31.849 44.9825 31.849C46.2837 31.849 47.3154 31.2662 48.1008 30.1006H48.1829V31.5159H49.9882V25.2243C49.9882 23.9041 49.5897 22.8575 48.7808 22.1082ZM43.6581 29.6368C43.2712 29.3513 43.0367 28.8875 43.0367 28.3879C43.0367 27.8289 43.2946 27.3651 43.7988 26.9964C44.3147 26.6277 44.9596 26.4374 45.7217 26.4374C46.7769 26.4255 47.5977 26.6634 48.1839 27.1391C48.1839 27.9479 47.8674 28.6496 47.2459 29.2443C46.6831 29.8152 45.921 30.1363 45.1237 30.1363C44.5961 30.1482 44.0802 29.9698 43.6581 29.6368ZM54.0445 35.9998L60.3515 21.3113H58.3L55.3809 28.6377H55.3457L52.3563 21.3113H50.3048L54.4431 30.8618L52.0984 35.9998H54.0445Z" fill="#3C4043"/>
<path d="M26.8956 24.1657C26.8956 23.5829 26.8487 23.0001 26.7549 22.4292H18.7949V25.7237H23.3552C23.1676 26.7822 22.558 27.7337 21.6671 28.3284V30.4692H24.3868C25.9812 28.9825 26.8956 26.7822 26.8956 24.1657Z" fill="#4285F4"/>
<path d="M18.7953 32.5387C21.0696 32.5387 22.9922 31.7775 24.3872 30.4693L21.6675 28.3284C20.9054 28.8517 19.9324 29.1491 18.7953 29.1491C16.5913 29.1491 14.7274 27.6386 14.0591 25.6167H11.2573V27.8289C12.6875 30.719 15.6066 32.5387 18.7953 32.5387Z" fill="#34A853"/>
<path d="M14.0595 25.6167C13.7077 24.5582 13.7077 23.4045 14.0595 22.3341V20.1338H11.2572C10.0495 22.5482 10.0495 25.4026 11.2572 27.817L14.0595 25.6167Z" fill="#FBBC04"/>
<path d="M18.7953 18.8018C20.0028 18.778 21.1634 19.2419 22.0309 20.0863L24.4458 17.6362C22.9101 16.1852 20.8937 15.3884 18.7953 15.4121C15.6066 15.4121 12.6875 17.2437 11.2573 20.1339L14.0591 22.3461C14.7274 20.3123 16.5913 18.8018 18.7953 18.8018Z" fill="#EA4335"/>
</svg>
