<svg width="71" height="48" viewBox="0 0 71 48" fill="none" xmlns="http://www.w3.org/2000/svg">
<rect x="0.85144" y="0.5" width="69" height="47" rx="5.5" fill="white" stroke="#D9D9D9"/>
<path fill-rule="evenodd" clip-rule="evenodd" d="M35.8514 34.3139C33.4683 36.3704 30.377 37.6119 26.999 37.6119C19.4617 37.6119 13.3514 31.4308 13.3514 23.806C13.3514 16.1811 19.4617 10 26.999 10C30.377 10 33.4683 11.2415 35.8514 13.2981C38.2346 11.2415 41.3259 10 44.7039 10C52.2412 10 58.3514 16.1811 58.3514 23.806C58.3514 31.4308 52.2412 37.6119 44.7039 37.6119C41.3259 37.6119 38.2346 36.3704 35.8514 34.3139Z" fill="#ED0006"/>
<path fill-rule="evenodd" clip-rule="evenodd" d="M35.8514 34.3139C38.7858 31.7816 40.6465 28.0136 40.6465 23.806C40.6465 19.5983 38.7858 15.8303 35.8514 13.2981C38.2346 11.2415 41.3259 10 44.7039 10C52.2412 10 58.3514 16.1811 58.3514 23.806C58.3514 31.4308 52.2412 37.6119 44.7039 37.6119C41.3259 37.6119 38.2346 36.3704 35.8514 34.3139Z" fill="#F9A000"/>
<path fill-rule="evenodd" clip-rule="evenodd" d="M35.8515 13.2983C38.7859 15.8306 40.6466 19.5986 40.6466 23.8062C40.6466 28.0138 38.7859 31.7818 35.8515 34.3141C32.9172 31.7818 31.0565 28.0138 31.0565 23.8062C31.0565 19.5986 32.9172 15.8306 35.8515 13.2983Z" fill="#FF5E00"/>
</svg>
