<svg width="71" height="48" viewBox="0 0 71 48" fill="none" xmlns="http://www.w3.org/2000/svg">
<rect x="0.85144" y="0.5" width="69" height="47" rx="5.5" fill="white" stroke="#D9D9D9"/>
<path fill-rule="evenodd" clip-rule="evenodd" d="M20.1515 30.4819H17.0402C16.8273 30.4819 16.6462 30.6367 16.613 30.8468L15.3547 38.8249C15.3297 38.9824 15.4516 39.1243 15.6113 39.1243H17.0966C17.3095 39.1243 17.4906 38.9695 17.5238 38.759L17.8632 36.6072C17.8959 36.3965 18.0774 36.2419 18.2899 36.2419H19.2748C21.3243 36.2419 22.507 35.2502 22.8161 33.2849C22.9552 32.4251 22.822 31.7495 22.4192 31.2762C21.9771 30.7569 21.1927 30.4819 20.1515 30.4819ZM20.5104 33.3958C20.3403 34.5123 19.4873 34.5123 18.6625 34.5123H18.193L18.5224 32.4272C18.5419 32.3013 18.6511 32.2085 18.7785 32.2085H18.9937C19.5555 32.2085 20.0856 32.2085 20.3595 32.5287C20.5226 32.7198 20.5727 33.0036 20.5104 33.3958ZM29.4517 33.36H27.9618C27.8348 33.36 27.7252 33.4529 27.7056 33.579L27.6397 33.9956L27.5355 33.8447C27.2129 33.3765 26.4938 33.22 25.7759 33.22C24.1294 33.22 22.7232 34.467 22.4494 36.2163C22.307 37.0887 22.5094 37.923 23.0043 38.5049C23.4584 39.0398 24.1081 39.2628 24.8809 39.2628C26.2075 39.2628 26.9433 38.4097 26.9433 38.4097L26.8767 38.8238C26.8517 38.9822 26.9736 39.1241 27.1323 39.1241H28.4744C28.6879 39.1241 28.8679 38.9693 28.9016 38.7588L29.7068 33.6594C29.7323 33.5026 29.6108 33.36 29.4517 33.36ZM27.3748 36.2598C27.231 37.111 26.5555 37.6824 25.694 37.6824C25.2614 37.6824 24.9155 37.5436 24.6936 37.2807C24.4734 37.0196 24.3896 36.6478 24.4597 36.2339C24.594 35.3899 25.2809 34.8 26.1294 34.8C26.5523 34.8 26.8963 34.9405 27.1228 35.2057C27.3498 35.4737 27.4399 35.8476 27.3748 36.2598ZM35.8894 33.3598H37.3867C37.5963 33.3598 37.7187 33.595 37.5995 33.767L32.6199 40.9548C32.5393 41.0712 32.4064 41.1405 32.2645 41.1405H30.7692C30.5586 41.1405 30.4357 40.9034 30.5576 40.731L32.1081 38.5424L30.4591 33.7028C30.402 33.5346 30.5262 33.3598 30.7052 33.3598H32.1763C32.3675 33.3598 32.5361 33.4853 32.5913 33.6683L33.4664 36.5912L35.5315 33.5495C35.6123 33.4308 35.7467 33.3598 35.8894 33.3598Z" fill="#253B80"/>
<path fill-rule="evenodd" clip-rule="evenodd" d="M52.1223 38.8248L53.3992 30.7008C53.4188 30.5747 53.528 30.4819 53.655 30.4814H55.0925C55.2512 30.4814 55.3731 30.6238 55.348 30.7812L54.0889 38.7589C54.056 38.9695 53.875 39.1242 53.6617 39.1242H52.3779C52.2192 39.1242 52.0973 38.9823 52.1223 38.8248ZM42.3436 30.4819H39.2318C39.0194 30.4819 38.8383 30.6366 38.805 30.8467L37.5467 38.8248C37.5217 38.9823 37.6436 39.1242 37.8025 39.1242H39.3992C39.5476 39.1242 39.6745 39.016 39.6977 38.8686L40.0547 36.6071C40.0876 36.3964 40.2691 36.2419 40.4815 36.2419H41.4659C43.5158 36.2419 44.6983 35.2501 45.0076 33.2848C45.1472 32.425 45.0131 31.7494 44.6105 31.2762C44.1686 30.7568 43.3849 30.4819 42.3436 30.4819ZM42.7025 33.3958C42.5328 34.5122 41.6798 34.5122 40.8545 34.5122H40.3855L40.7154 32.4271C40.7349 32.3012 40.8432 32.2084 40.9709 32.2084H41.1861C41.7476 32.2084 42.2781 32.2084 42.5518 32.5286C42.7152 32.7198 42.7648 33.0036 42.7025 33.3958ZM51.643 33.36H50.1541C50.0261 33.36 49.9175 33.4528 49.8983 33.5789L49.8324 33.9956L49.7278 33.8446C49.4053 33.3764 48.6865 33.22 47.9687 33.22C46.3221 33.22 44.9164 34.4669 44.6425 36.2162C44.5006 37.0886 44.7021 37.9229 45.1971 38.5048C45.652 39.0398 46.3009 39.2627 47.0737 39.2627C48.4002 39.2627 49.1358 38.4097 49.1358 38.4097L49.0695 38.8238C49.0444 38.9821 49.1663 39.124 49.3261 39.124H50.6676C50.88 39.124 51.0611 38.9693 51.0943 38.7587L51.9 33.6593C51.9247 33.5025 51.8028 33.36 51.643 33.36ZM49.5663 36.2598C49.4234 37.1109 48.747 37.6823 47.8853 37.6823C47.4535 37.6823 47.107 37.5436 46.8849 37.2806C46.6646 37.0196 46.5819 36.6478 46.6512 36.2339C46.7861 35.3899 47.4722 34.8 48.3207 34.8C48.7438 34.8 49.0876 34.9404 49.3143 35.2057C49.5421 35.4737 49.6322 35.8476 49.5663 36.2598Z" fill="#179BD7"/>
<path d="M31.6655 27.6276L32.048 25.1981L31.196 25.1784H27.1276L29.9549 7.25069C29.9636 7.19656 29.9922 7.1461 30.0339 7.11027C30.0756 7.07444 30.129 7.05469 30.1846 7.05469H37.0446C39.3221 7.05469 40.8937 7.5286 41.7143 8.464C42.099 8.90282 42.344 9.36137 42.4625 9.866C42.5868 10.3955 42.5891 11.0281 42.4676 11.7997L42.4588 11.856V12.3504L42.8436 12.5684C43.1676 12.7402 43.4249 12.937 43.6223 13.1622C43.9516 13.5374 44.1644 14.0142 44.2543 14.5796C44.3472 15.161 44.3164 15.8529 44.1644 16.6361C43.9889 17.5372 43.7051 18.3219 43.3219 18.964C42.9693 19.5557 42.5202 20.0463 41.9872 20.4268C41.4781 20.788 40.8733 21.0623 40.1895 21.2379C39.5267 21.4103 38.7714 21.4975 37.9427 21.4975H37.4089C37.0272 21.4975 36.6562 21.635 36.3653 21.8815C36.0735 22.1331 35.8802 22.4767 35.8211 22.8527L35.7808 23.0714L35.1051 27.3533L35.0743 27.5106C35.0663 27.5605 35.0524 27.5853 35.032 27.6021C35.0137 27.6173 34.9874 27.6276 34.9617 27.6276H31.6655Z" fill="#253B80"/>
<path d="M43.2078 11.9131C43.1874 12.044 43.164 12.1778 43.1377 12.3153C42.2329 16.9602 39.1379 18.5647 35.1849 18.5647H33.1722C32.6888 18.5647 32.2815 18.9158 32.2061 19.3926L31.1756 25.9281L30.8838 27.7805C30.8347 28.0935 31.0762 28.3759 31.392 28.3759H34.9619C35.3846 28.3759 35.7436 28.0687 35.8101 27.6519L35.8453 27.4704L36.5175 23.2051L36.5606 22.9712C36.6263 22.5529 36.9861 22.2457 37.4089 22.2457H37.9428C41.4013 22.2457 44.1089 20.8415 44.9002 16.778C45.2308 15.0806 45.0596 13.6632 44.1849 12.6664C43.9202 12.3658 43.5918 12.1164 43.2078 11.9131Z" fill="#179BD7"/>
<path d="M42.2611 11.5361C42.123 11.4959 41.9802 11.4593 41.8339 11.4264C41.687 11.3943 41.5362 11.3657 41.3813 11.3409C40.8386 11.2531 40.244 11.2114 39.607 11.2114H34.2301C34.0977 11.2114 33.972 11.2414 33.8594 11.2955C33.6114 11.4147 33.4272 11.6495 33.3825 11.9369L32.2385 19.1817L32.2057 19.3931C32.2811 18.9162 32.6884 18.5652 33.1718 18.5652H35.1844C39.1375 18.5652 42.2327 16.9599 43.1373 12.3158C43.1642 12.1783 43.187 12.0444 43.2074 11.9135C42.9786 11.7921 42.7306 11.6883 42.4636 11.5998C42.3979 11.5778 42.3299 11.5566 42.2611 11.5361Z" fill="#222D65"/>
<path d="M33.3826 11.9368C33.4272 11.6494 33.6116 11.4146 33.8594 11.2962C33.9729 11.242 34.0979 11.2121 34.2302 11.2121H39.6072C40.2443 11.2121 40.8388 11.2537 41.3813 11.3415C41.5365 11.3664 41.6872 11.3949 41.8342 11.4271C41.9805 11.46 42.123 11.4966 42.2613 11.5368C42.33 11.5573 42.398 11.5785 42.4645 11.5997C42.7314 11.6882 42.9794 11.7928 43.2083 11.9134C43.4775 10.1969 43.2062 9.02824 42.2782 7.96997C41.255 6.80493 39.4083 6.30615 37.0453 6.30615H30.1851C29.7024 6.30615 29.2908 6.65718 29.216 7.13476L26.3588 25.2467C26.3024 25.605 26.5788 25.9284 26.94 25.9284H31.1754L32.2388 19.1816L33.3826 11.9368Z" fill="#253B80"/>
</svg>
