<svg width="71" height="82" viewBox="0 0 71 82" fill="none" xmlns="http://www.w3.org/2000/svg">
<path d="M34.3707 70.8584C34.5345 70.2469 33.9229 70.083 33.3113 69.9192C33.3113 69.9192 33.0274 68.5322 32.5797 67.7568C32.4597 65.7583 32.4599 65.7583 31.5206 66.8175L30.8651 69.2637C31.6039 71.4219 34.0445 72.0758 34.3707 70.8584Z" fill="white"/>
<path d="M33.6146 24.8229C27.0129 25.0204 25.0201 25.1419 22.0837 26.3153C20.6967 26.5991 18.54 27.3322 17.153 27.616C14.2208 28.7967 8.30412 33.7536 5.77731 38.3141C2.30547 43.9322 0.626001 52.6464 0.375903 58.4724C1.34324 64.6246 2.07495 66.787 4.80663 68.8237C7.97877 71.6401 8.59014 71.8039 12.7455 70.9509L16.1255 70.5458L18.0745 73.0343C19.7454 74.1375 21.2467 75.8507 21.8583 76.0145C23.3652 77.7292 29.4694 79.3649 32.6912 79.5727C34.0782 79.2889 36.0711 79.1674 37.0104 78.1082L39.1729 77.3767L42.509 79.5815C44.1798 80.6847 46.6203 81.3386 47.2319 81.5025C54.8871 82.2427 59.9858 80.3378 64.5112 75.6574C70.7499 69.4758 72.0594 64.5891 70.1967 56.8861C69.629 54.1122 69.2291 50.7339 69.1076 48.7411C69.4354 47.518 69.314 45.5252 69.0302 44.1383C67.6871 41.812 63.5037 35.4535 62.2806 35.1258C60.4458 34.6342 54.5476 29.7826 54.0999 29.0072C53.6945 25.6274 54.8839 18.7422 55.8656 15.0786C56.8473 11.415 57.5027 8.96877 60.1552 6.40835C61.2584 4.73757 60.973 3.35633 59.466 1.64162C57.1893 0.376112 55.9661 0.0483599 53.6398 1.3914C50.7076 2.5721 50.7078 2.57218 51.1074 5.95043C50.7373 9.77788 48.041 14.9483 42.904 19.4649C38.544 23.528 36.9929 24.4234 33.6146 24.8229ZM66.7744 59.8958L66.8943 61.8942L65.4211 67.3925L65.1373 66.0055L66.7744 59.8958ZM42.5511 76.9771L42.1035 76.2017C42.2674 75.5902 42.2674 75.5902 42.2674 75.5902C42.879 75.754 43.4906 75.918 43.3267 76.5295L42.5511 76.9771ZM44.8337 78.2442C44.386 77.4688 44.3859 77.4687 45.6091 77.7965C46.8322 78.1242 48.0497 78.4505 47.8858 79.062C47.7219 79.6736 45.2814 79.0197 44.8337 78.2442ZM61.7869 73.6165C60.8476 74.6757 60.8477 74.6757 61.1754 73.4526C61.3393 72.8411 61.6669 71.618 62.4408 71.176L61.7869 73.6165ZM51.962 10.0998C53.1075 5.82471 53.2712 5.21312 54.3305 6.15241L56.1652 6.64402C56.1652 6.64402 55.3474 9.69605 54.6919 12.1423C52.1171 19.3056 51.2118 27.5778 51.781 30.346C52.6764 31.8969 53.1239 32.6723 54.9529 33.1624C57.3935 33.8163 60.7352 36.0226 62.6857 38.5055C64.1927 40.2202 64.6347 40.9941 64.1447 42.8231C63.8169 44.0462 64.3861 46.8144 64.5061 48.8129C65.2377 50.9753 65.1953 53.5797 64.8676 54.8028C64.5399 56.0259 64.8254 57.4071 64.6616 58.0187C65.3931 60.1811 64.0412 67.6721 63.4296 67.5082C62.818 67.3443 62.5344 65.9574 63.0244 64.1285C63.8422 61.0765 64.3337 59.2418 63.1106 58.914C63.1106 58.914 62.7829 60.1371 62.2928 61.9661C61.8027 63.795 61.6373 64.4123 61.6373 64.4123C60.9058 62.2499 60.578 63.4729 59.2686 68.3596C58.6131 70.8058 57.1839 73.694 56.8561 74.9171C55.9168 75.9764 56.4085 74.1418 57.8818 68.6435C60.2943 62.0861 60.6205 60.8687 60.0089 60.7048C59.3974 60.5409 58.7856 60.377 59.0695 61.764L58.5779 63.5986C57.8024 64.0463 56.9849 67.0984 55.3916 70.5981C54.0822 75.4848 53.4281 77.9252 52.6527 78.3729C51.2657 78.6567 51.2658 78.6567 52.369 76.9859C53.4721 75.3152 57.848 61.4306 57.848 61.4306C58.0119 60.819 57.2363 61.2667 57.2363 61.2667C56.6247 61.1028 55.3576 63.3851 54.5398 66.4371C52.4126 74.3759 51.3096 76.0467 53.1106 69.3253C54.3 62.4401 53.403 60.895 51.7674 66.9991L51.112 69.4452C51.3182 66.2293 50.5442 66.6713 49.7249 69.729C49.2333 71.5637 48.2957 72.6172 47.6842 72.4534C47.0726 72.2895 46.6248 71.5141 46.7887 70.9025C47.1164 69.6794 46.5047 69.5155 45.8932 69.3516C45.8932 69.3516 46.3848 67.517 47.0387 65.0765C48.6319 61.5768 49.6997 52.6988 49.252 51.9234C48.9682 50.5364 47.865 52.2072 47.7788 57.4216L45.6516 65.3603L44.5485 67.0311L45.204 64.5849C45.6956 62.7502 45.4101 61.369 44.6362 61.8109C44.0246 61.6471 43.533 63.4817 43.163 67.3092C43.4468 68.6961 42.5091 69.7497 41.7337 70.1974C40.9582 70.6451 40.7945 71.2567 40.4668 72.4798C40.3029 73.0913 39.5273 73.5389 39.5273 73.5389C38.9157 73.375 38.7519 73.9866 38.5881 74.5982C38.2604 75.8213 35.9356 77.1586 33.3311 77.1162C32.108 76.7885 32.1079 76.7885 32.2718 76.1769C32.4356 75.5654 31.8242 75.4015 31.8242 75.4015C31.2126 75.2376 31.2124 75.2376 31.0485 75.8492C30.5569 77.6838 29.3338 77.3561 29.2138 75.3575C29.7054 73.5229 29.7055 73.5229 28.7662 74.5821C28.6024 75.1937 27.663 76.2529 27.0514 76.089C26.4398 75.9251 27.4217 72.2616 28.9725 71.3663C30.5234 70.4709 30.0756 69.6954 28.077 69.8154C27.3016 70.2631 26.69 70.0992 26.4062 68.7123C25.6746 66.5499 27.7594 61.2154 29.3087 60.3258C30.6957 60.042 30.8596 59.4304 29.6364 59.1027C27.8017 58.6111 26.0928 60.1196 24.9473 64.3947C24.1295 67.4467 23.9654 68.0582 23.68 66.677C22.6208 65.7377 22.9487 64.5146 23.7665 61.4626C25.4036 55.3528 28.1 50.1823 29.4813 49.897C30.8683 49.6132 31.3583 47.7842 30.7467 47.6203C28.3061 46.9664 24.6704 53.1961 22.7071 60.5233C20.7861 65.2461 21.5176 67.4084 23.0261 69.1174C24.2493 69.4452 25.1392 70.9945 25.7507 71.1584C26.6462 72.7092 25.8284 75.7613 24.6052 75.4335C23.9937 75.2697 24.1573 74.6581 24.3212 74.0466C24.4851 73.435 24.649 72.8235 24.0374 72.6596C23.7536 71.2726 22.9781 71.7203 22.4865 73.555C22.9342 74.3304 21.875 73.3911 19.926 70.9025C19.0306 69.3516 17.3655 68.25 17.3655 68.25C17.3655 68.25 15.9785 68.5339 14.5972 68.8192C10.278 70.2837 5.55486 68.3627 3.92789 64.6494C3.48017 63.874 2.91094 61.1058 2.96054 58.4972C2.10747 54.342 2.27154 53.7305 4.84796 46.5615C5.99348 42.2864 7.75037 38.175 8.68967 37.1158C9.95517 34.8392 16.6432 29.4273 17.8663 29.7551C17.8663 29.7551 19.4171 28.8597 20.8041 28.5759C24.5117 26.9475 26.5087 26.8333 30.5002 26.5919C32.3349 27.0835 33.5525 27.4097 34.0002 28.1851C34.6118 28.349 35.2234 28.5129 35.3873 27.9014C35.5511 27.2898 37.1019 26.3945 39.2571 25.6672C40.808 24.7718 43.291 22.8214 44.2303 21.7622C49.5495 16.6573 50.6526 14.9865 51.962 10.0998Z" fill="white"/>
<path d="M37.2661 72.2837C37.8777 72.4476 38.4891 72.6114 38.6529 71.9998C38.2052 71.2244 36.9821 70.8967 36.8182 71.5082C36.0428 71.9559 36.4907 72.7314 37.2661 72.2837Z" fill="white"/>
<path d="M32.219 34.924C24.4719 39.3966 17.733 57.2302 19.5534 67.5376C20.0011 68.313 20.2849 69.6999 20.8965 69.8638C21.5081 70.0277 21.8358 68.8046 21.3881 68.0292C20.4927 66.4783 20.7908 58.0496 22.7118 53.3267C24.6751 45.9996 28.4747 39.1583 33.1201 36.4764C35.5973 34.5244 34.5381 33.5852 32.219 34.924Z" fill="white"/>
<path d="M69.3349 62.5482C69.3349 62.5482 69.3349 62.5482 69.0072 63.7713C68.8433 64.3828 68.8433 64.3829 68.8433 64.3829C69.0072 63.7713 69.1711 63.1597 69.3349 62.5482Z" fill="white"/>
<path d="M44.8 71.0312C44.9638 70.4197 44.8 71.0312 44.3084 72.8658C43.9806 74.0889 43.8168 74.7005 43.9806 74.089C44.1445 73.4774 44.6361 71.6428 44.8 71.0312Z" fill="white"/>
<path d="M50.7037 75.8843C50.7037 75.8843 50.7037 75.8842 50.5398 76.4958C50.3759 77.1073 50.2121 77.7189 50.3759 77.1074C50.3759 77.1074 50.5398 76.4958 50.7037 75.8843Z" fill="white"/>
</svg>
