<svg width="71" height="48" viewBox="0 0 71 48" fill="none" xmlns="http://www.w3.org/2000/svg">
<rect x="0.85144" y="0.5" width="69" height="47" rx="5.5" fill="white" stroke="#D9D9D9"/>
<path fill-rule="evenodd" clip-rule="evenodd" d="M21.602 32.5165H17.3613L14.1813 20.3847C14.0304 19.8267 13.7099 19.3333 13.2385 19.1008C12.0621 18.5165 10.7657 18.0514 9.35144 17.8169V17.3498H16.1828C17.1256 17.3498 17.8327 18.0514 17.9506 18.8663L19.6005 27.6173L23.8391 17.3498H27.9619L21.602 32.5165ZM30.3189 32.5165H26.314L29.6118 17.3498H33.6168L30.3189 32.5165ZM38.7982 21.5514C38.916 20.7346 39.6231 20.2675 40.4481 20.2675C41.7445 20.1502 43.1567 20.3848 44.3352 20.9671L45.0423 17.7016C43.8638 17.2345 42.5674 17 41.3909 17C37.5039 17 34.6754 19.1008 34.6754 22.0165C34.6754 24.2346 36.6789 25.3992 38.0931 26.1008C39.6231 26.8004 40.2124 27.2675 40.0946 27.9671C40.0946 29.0165 38.916 29.4836 37.7396 29.4836C36.3253 29.4836 34.9111 29.1338 33.6168 28.5494L32.9096 31.8169C34.3239 32.3992 35.8539 32.6338 37.2681 32.6338C41.6266 32.749 44.3352 30.6502 44.3352 27.5C44.3352 23.5329 38.7982 23.3004 38.7982 21.5514ZM58.3514 32.5165L55.1715 17.3498H51.7558C51.0487 17.3498 50.3416 17.8169 50.1059 18.5165L44.2173 32.5165H48.3401L49.163 30.3004H54.2287L54.7001 32.5165H58.3514ZM52.3451 21.4342L53.5215 27.1502H50.2237L52.3451 21.4342Z" fill="#172B85"/>
</svg>
